<?xml version="1.0" encoding="utf-8"?>
<!-- Generator: Adobe Illustrator 14.0.0, SVG Export Plug-In . SVG Version: 6.00 Build 43363)  -->
<!DOCTYPE svg PUBLIC "-//W3C//DTD SVG 1.0//EN" "http://www.w3.org/TR/2001/REC-SVG-20010904/DTD/svg10.dtd">
<svg version="1.0" id="Layer_1" xmlns="http://www.w3.org/2000/svg" xmlns:xlink="http://www.w3.org/1999/xlink" x="0px" y="0px"
	 width="100px" height="62.025px" viewBox="0 0 100 62.025" enable-background="new 0 0 100 62.025" xml:space="preserve">
<path d="M7.663,16.69H0v28.07h7.663v-6.88l17.05,4.353v12.321c0,4.12,3.352,7.471,7.471,7.471h27.202
	c4.12,0,7.472-3.352,7.472-7.471v-1.563l16.666,4.254V4.206L7.663,23.571V16.69z M61.111,54.554c0,0.951-0.773,1.724-1.725,1.724
	H32.185c-0.951,0-1.724-0.773-1.724-1.724V43.699l30.65,7.825V54.554z"/>
<polygon points="88.888,2.836 88.888,58.614 100,61.451 100,31.1 100,30.351 100,0 "/>
</svg>
